<svg width="839" height="924" viewBox="0 0 839 924" fill="none" xmlns="http://www.w3.org/2000/svg">
<g clip-path="url(#clip0_117_2)">
<path d="M839 482.806C839.068 524.622 830.361 565.987 813.444 604.224C812.733 605.825 812.015 607.42 811.274 609.007C811.169 609.254 811.05 609.501 810.937 609.748C810.653 610.355 810.369 610.968 810.077 611.575C809.867 612.017 809.658 612.451 809.441 612.892C808.925 613.97 808.401 615.043 807.87 616.111C807.286 617.287 806.695 618.46 806.097 619.63C805.498 620.798 804.892 621.963 804.279 623.126C803.74 624.137 803.199 625.145 802.656 626.15C801.952 627.446 801.237 628.741 800.508 630.036C799.88 631.144 799.249 632.244 798.616 633.337C797.935 634.505 797.247 635.673 796.551 636.84L796.483 636.953C796.334 637.207 796.184 637.462 796.027 637.716C795.885 637.948 795.75 638.173 795.608 638.405C795.466 638.637 795.331 638.862 795.189 639.086V639.094C794.733 639.842 794.276 640.576 793.82 641.317L793.813 641.325C792.788 642.972 791.74 644.611 790.685 646.236C788.725 649.26 786.713 652.24 784.648 655.174C784.648 655.182 784.641 655.182 784.633 655.189C783.399 656.956 782.134 658.707 780.863 660.444C780.047 661.552 779.224 662.655 778.394 663.753C777.563 664.854 776.725 665.944 775.88 667.025C775.693 667.272 775.498 667.519 775.304 667.766C774.227 669.143 773.134 670.521 772.027 671.876C771.788 672.175 771.548 672.467 771.316 672.759C770.95 673.201 770.591 673.642 770.232 674.077C770.112 674.226 769.992 674.369 769.865 674.518C769.252 675.252 768.638 675.986 768.01 676.719V676.727C767.404 677.445 766.79 678.164 766.169 678.883C766.035 679.04 765.9 679.197 765.758 679.354C765.556 679.594 765.346 679.826 765.137 680.066C764.621 680.672 764.089 681.271 763.551 681.87C763.543 681.877 763.543 681.885 763.536 681.892L763.513 681.915V681.922C747.43 700.079 729.21 716.221 709.252 729.998C709.185 730.05 709.115 730.097 709.042 730.14C708.795 730.32 708.548 730.485 708.302 730.657C706.514 731.885 704.71 733.097 702.893 734.28C702.002 734.864 701.112 735.44 700.214 736.01V736.017C700.207 736.017 700.207 736.017 700.199 736.024H700.184L700.169 736.039L700.124 736.062C700.102 736.077 700.087 736.084 700.065 736.099C699.376 736.541 698.696 736.975 698 737.409C697.79 737.552 697.581 737.679 697.371 737.806C697.005 738.038 696.631 738.27 696.257 738.502C695.89 738.727 695.516 738.959 695.142 739.183C694.671 739.468 694.199 739.76 693.728 740.037C692.703 740.658 691.676 741.272 690.646 741.879C690.272 742.103 689.89 742.32 689.509 742.545C689.134 742.762 688.753 742.979 688.371 743.196C688.366 743.204 688.36 743.211 688.352 743.216C688.344 743.221 688.336 743.224 688.326 743.226L688.311 743.234L688.297 743.249H688.289C687.242 743.847 686.202 744.446 685.147 745.03L685.139 745.038C684.294 745.509 683.449 745.973 682.596 746.438C680.576 747.538 678.543 748.619 676.499 749.679C675.077 750.42 673.648 751.139 672.212 751.85C671.344 752.284 670.469 752.711 669.593 753.138C668.868 753.49 668.134 753.841 667.409 754.186C667.207 754.283 667.012 754.38 666.81 754.47C666.481 754.628 666.144 754.785 665.815 754.934C665.538 755.062 665.269 755.189 664.992 755.316C664.334 755.631 663.668 755.93 663.01 756.229C662.269 756.566 661.536 756.896 660.795 757.225C658.012 758.468 655.199 759.666 652.379 760.818C642.303 764.947 632.005 768.511 621.533 771.494C621.047 771.636 620.553 771.778 620.06 771.913C615.578 773.171 611.065 774.321 606.518 775.364C598.581 777.191 590.571 778.69 582.489 779.863C582.474 779.863 582.451 779.871 582.436 779.871C581.471 780.013 580.498 780.148 579.533 780.282C579.451 780.297 579.361 780.312 579.272 780.32C579.264 780.327 579.257 780.327 579.242 780.32H579.234C578.164 780.462 577.094 780.604 576.017 780.739C575.942 780.754 575.868 780.761 575.793 780.769C574.79 780.889 573.78 781.009 572.77 781.121C571.686 781.241 570.601 781.353 569.509 781.465H569.501C567.84 781.63 566.179 781.787 564.519 781.922C564.489 781.922 564.459 781.929 564.429 781.929C563.77 781.989 563.112 782.034 562.454 782.087H562.446C554.703 782.701 546.888 783.005 539 783C530.434 783 521.955 782.643 513.564 781.929C513.534 781.929 513.504 781.922 513.474 781.922C511.686 781.772 509.9 781.608 508.117 781.428C507.646 781.383 507.182 781.331 506.711 781.286C506.621 781.278 506.531 781.271 506.441 781.256C506.299 781.241 506.157 781.226 506.007 781.211C505.933 781.203 505.85 781.196 505.776 781.181C505.155 781.114 504.534 781.046 503.905 780.971C503.209 780.889 502.506 780.807 501.81 780.717C501.115 780.634 500.411 780.545 499.716 780.447C499.566 780.432 499.409 780.417 499.259 780.387C498.751 780.327 498.242 780.26 497.741 780.185C497.494 780.155 497.254 780.118 497.015 780.081C496.529 780.013 496.05 779.946 495.564 779.871C495.549 779.871 495.526 779.863 495.511 779.863C480.234 777.656 465.153 774.254 450.407 769.69H450.399C449.599 769.443 448.798 769.188 447.998 768.934C447.758 768.866 447.519 768.791 447.279 768.709C445.2 768.043 443.132 767.354 441.077 766.643C438.242 765.67 435.427 764.652 432.631 763.589C431.868 763.296 431.112 763.005 430.349 762.713C428.83 762.114 427.319 761.515 425.815 760.901C423.249 759.853 420.701 758.772 418.17 757.66H418.162V757.652C416.165 756.769 414.175 755.87 412.2 754.934C411.84 754.77 411.481 754.605 411.122 754.433C411.053 754.412 410.988 754.382 410.928 754.343C410.92 754.343 410.92 754.336 410.913 754.336C410.397 754.096 409.88 753.849 409.364 753.602L409.349 753.594C406.708 752.329 404.09 751.024 401.494 749.679C398.277 748.017 395.087 746.295 391.925 744.514C389.307 743.039 386.713 741.524 384.145 739.97C381.1 738.128 378.087 736.232 375.107 734.28C374.18 733.674 373.252 733.06 372.324 732.439C371.486 731.877 370.656 731.316 369.825 730.747C366.893 728.74 363.998 726.682 361.14 724.571C358.185 722.392 355.272 720.159 352.402 717.87C348.661 714.891 344.995 711.827 341.404 708.678C334.708 702.823 328.287 696.675 322.14 690.232C321.945 690.03 321.751 689.827 321.556 689.618C320.943 688.974 320.337 688.33 319.731 687.679C318.848 686.736 317.973 685.778 317.105 684.819C315.668 683.255 314.257 681.673 312.87 680.073H312.863V680.066C312.018 679.1 311.195 678.142 310.357 677.168V677.161C310.237 677.026 310.125 676.891 310.013 676.757C309.481 676.135 308.965 675.521 308.449 674.893V674.885C307.746 674.054 307.057 673.223 306.384 672.385C306.235 672.205 306.092 672.033 305.95 671.853H305.943V671.846C305.389 671.172 304.843 670.491 304.304 669.81C304.028 669.473 303.758 669.128 303.489 668.784H303.481V668.777C301.851 666.718 300.252 664.639 298.686 662.541V662.533C298.252 661.957 297.826 661.38 297.407 660.796H297.399C295.394 658.086 293.442 655.344 291.541 652.569V652.561C290.823 651.521 290.112 650.473 289.409 649.417C288.706 648.362 288.01 647.304 287.322 646.243H287.314C286.604 645.15 285.9 644.052 285.205 642.949C285.167 642.889 285.13 642.837 285.1 642.784C284.412 641.699 283.733 640.606 283.065 639.506C282.526 638.63 281.995 637.761 281.479 636.885C281.12 636.294 280.768 635.71 280.424 635.111C280.297 634.909 280.185 634.707 280.072 634.512C279.279 633.157 278.501 631.802 277.723 630.44C276.818 628.838 275.92 627.221 275.045 625.604C274.686 624.938 274.327 624.264 273.975 623.59C273.848 623.373 273.736 623.156 273.624 622.931C273.205 622.138 272.786 621.344 272.374 620.543C271.963 619.75 271.551 618.949 271.147 618.148C270.743 617.346 270.339 616.546 269.943 615.737C269.644 615.131 269.344 614.517 269.052 613.91C269.022 613.86 268.995 613.807 268.97 613.753C268.836 613.469 268.693 613.192 268.566 612.907C268.536 612.864 268.514 612.816 268.499 612.765C268.192 612.136 267.893 611.515 267.601 610.886C267.212 610.077 266.838 609.262 266.464 608.446C266.195 607.877 265.94 607.3 265.678 606.724C265.304 605.915 264.938 605.099 264.579 604.276C264.197 603.43 263.831 602.576 263.464 601.723C263.367 601.506 263.277 601.296 263.187 601.079C263.015 600.69 262.851 600.301 262.686 599.911C262.245 598.878 261.811 597.83 261.384 596.79C260.898 595.614 260.424 594.437 259.963 593.256C259.521 592.156 259.092 591.053 258.676 589.947L258.519 589.543V589.536C252.018 572.44 247.1 554.784 243.826 536.788V536.781C241.958 526.506 240.63 516.141 239.845 505.728C239.801 505.159 239.763 504.59 239.726 504.021C239.232 496.977 238.99 489.905 239 482.806C239 479.654 239.05 476.517 239.15 473.395C241.09 408.13 264.34 345.298 305.344 294.506C307.147 292.268 308.983 290.057 310.85 287.874C312.9 285.478 314.985 283.115 317.105 280.784C318.571 279.168 320.055 277.57 321.556 275.993C321.584 275.961 321.614 275.931 321.646 275.903C321.803 275.731 321.968 275.559 322.14 275.387C331.297 265.791 341.081 256.815 351.429 248.519C352.611 247.561 353.793 246.625 354.99 245.704C356.052 244.873 357.115 244.05 358.185 243.249C359.426 242.306 360.676 241.375 361.933 240.457C368.479 235.658 375.219 231.126 382.155 226.862C385.05 225.08 387.978 223.348 390.938 221.666C392.015 221.045 393.107 220.439 394.199 219.832C395.681 219.016 397.162 218.208 398.658 217.422C443.121 193.918 492.769 181.958 543.05 182.639C593.331 183.319 642.637 196.617 686.449 221.314C686.658 221.427 686.868 221.546 687.07 221.666C688.356 222.4 689.636 223.134 690.908 223.89C692.568 224.863 694.217 225.854 695.853 226.862C704.112 231.945 712.102 237.407 719.823 243.249C721.02 244.155 722.217 245.068 723.399 245.996C724.469 246.827 725.531 247.673 726.586 248.519C727.162 248.983 727.745 249.455 728.321 249.927C740.954 260.219 752.731 271.52 763.536 283.719L763.551 283.734C763.715 283.921 763.88 284.101 764.037 284.288C764.553 284.872 765.07 285.463 765.578 286.047C765.646 286.122 765.713 286.204 765.78 286.279C766.528 287.14 767.272 288.009 768.01 288.885C777.004 299.509 785.251 310.745 792.69 322.512C795.459 326.869 798.107 331.306 800.636 335.823C825.867 380.691 839.082 431.322 839 482.806V482.806Z" fill="#274054"/>
<path d="M750.054 177.478L768.009 663.844V663.853C767.403 664.69 766.79 665.527 766.169 666.364C765.832 666.826 765.488 667.279 765.136 667.741C764.62 668.447 764.089 669.145 763.55 669.842C763.543 669.851 763.543 669.86 763.535 669.869L763.513 669.895V669.903C747.765 690.703 729.544 709.506 709.251 725.895V726.087L709.042 726.061C708.795 726.27 708.548 726.462 708.301 726.663C706.513 728.092 704.71 729.505 702.892 730.882C702.002 731.562 701.109 732.234 700.214 732.896V732.905C700.206 732.905 700.206 732.905 700.199 732.914H700.184L700.169 732.931L700.124 732.957C700.101 732.975 700.086 732.984 700.064 733.001C699.376 733.515 698.695 734.021 697.999 734.527C697.79 734.692 697.58 734.841 697.371 734.989C697.004 735.259 696.63 735.529 696.256 735.8C695.889 736.061 695.515 736.331 695.141 736.593C693.653 737.657 692.149 738.703 690.645 739.732C690.271 739.993 689.89 740.246 689.508 740.508C689.134 740.761 688.752 741.014 688.371 741.266V741.292L688.326 741.301L688.311 741.31L688.296 741.327H688.289C687.241 742.025 686.201 742.722 685.146 743.402L685.139 743.411C684.293 743.96 683.448 744.501 682.595 745.041C680.575 746.323 678.54 747.588 676.498 748.817C675.077 749.68 673.648 750.517 672.211 751.345C671.343 751.851 670.468 752.348 669.593 752.845C668.867 753.255 668.134 753.664 667.408 754.065C667.206 754.179 667.012 754.292 666.81 754.397C666.481 754.58 666.144 754.763 665.815 754.937H412.199C411.84 754.746 411.481 754.553 411.122 754.353C411.052 754.329 410.986 754.293 410.927 754.248C410.92 754.248 410.92 754.24 410.912 754.24C410.396 753.961 409.88 753.673 409.364 753.385L409.349 753.377C406.708 751.903 404.089 750.383 401.493 748.817C395.605 745.277 389.822 741.507 384.144 737.509C381.099 735.364 378.087 733.155 375.107 730.882C374.179 730.176 373.251 729.461 372.324 728.737C371.486 728.084 370.655 727.43 369.825 726.767C366.892 724.43 363.997 722.033 361.139 719.574C358.184 717.037 355.271 714.436 352.401 711.771C348.66 708.301 344.995 704.732 341.404 701.064C334.708 694.246 328.286 687.085 322.139 679.581C321.945 679.346 321.75 679.11 321.556 678.866C320.052 677.027 318.568 675.164 317.104 673.278L332.067 177.478C332.053 174.467 332.604 171.48 333.69 168.672C335.965 162.917 340.401 159.003 345.496 159.003H736.625C741.787 159.003 746.269 163.013 748.513 168.89C748.588 169.082 748.655 169.273 748.722 169.465C749.614 172.042 750.065 174.751 750.054 177.478V177.478Z" fill="#274054"/>
<path d="M381.6 215.204C392.756 215.204 401.8 204.664 401.8 191.663C401.8 178.662 392.756 168.122 381.6 168.122C370.445 168.122 361.401 178.662 361.401 191.663C361.401 204.664 370.445 215.204 381.6 215.204Z" fill="#FBC901"/>
<path d="M595.562 254.754C561.508 263.717 523.775 269.17 485.409 270.663C479.786 270.969 474.15 270.931 468.532 270.548C456.186 269.509 445.61 265.626 433.833 263.504C428.171 262.487 421.864 261.743 416.163 260.644C417.48 259.009 418.821 257.393 420.186 255.798C432.477 256.837 444.96 260.239 457.399 261.82C478.544 264.51 502.237 261.508 518.266 254.103C526.043 250.51 532.001 246.025 539.75 242.416C540.805 241.875 541.946 241.525 543.123 241.382C545.577 241.158 547.73 242.148 549.484 243.034C562.486 249.602 581.363 254.94 598.885 252.003C600.191 253.026 597.71 254.191 595.562 254.754Z" fill="white"/>
<path d="M588.97 336.801C589.189 336.761 589.409 336.729 589.628 336.691C588.706 336.12 587.839 335.466 587.036 334.737L588.97 336.801Z" fill="white"/>
<path d="M732.551 354.539C722.533 355.34 712.463 355.936 702.341 356.328C694.644 356.744 686.929 356.692 679.239 356.171C662.339 354.741 647.863 349.433 631.74 346.529C616.965 343.871 599.01 342.591 589.628 336.692C613.875 332.492 638.997 341.042 664 344.223C684.224 346.712 704.725 345.699 724.606 341.229C727.374 345.586 730.022 350.022 732.551 354.539Z" fill="white"/>
<path d="M523.888 534.699V527.528C523.886 524.788 522.839 522.153 520.959 520.16C519.079 518.168 516.51 516.97 513.776 516.812V488.806H511.397V516.78H500.691V534.635H450.133V739.972H561.954V574.955C561.954 564.648 558.008 554.732 550.929 547.245C543.849 539.758 534.173 535.269 523.888 534.699Z" fill="#2F2E41"/>
<path d="M483.442 563.799H468.572V575.703H483.442V563.799Z" fill="#FBC901"/>
<path d="M507.828 563.799H492.958V575.703H507.828V563.799Z" fill="#FBC901"/>
<path d="M532.215 563.799H517.345V575.703H532.215V563.799Z" fill="#FBC901"/>
<path d="M483.442 594.153H468.572V606.057H483.442V594.153Z" fill="#FBC901"/>
<path d="M507.828 594.153H492.958V606.057H507.828V594.153Z" fill="#FBC901"/>
<path d="M532.215 594.153H517.345V606.057H532.215V594.153Z" fill="#FBC901"/>
<path d="M483.442 624.507H468.572V636.411H483.442V624.507Z" fill="#FBC901"/>
<path d="M507.828 624.507H492.958V636.411H507.828V624.507Z" fill="#FBC901"/>
<path d="M532.215 624.507H517.345V636.411H532.215V624.507Z" fill="#FBC901"/>
<path d="M483.442 654.862H468.572V666.765H483.442V654.862Z" fill="#FBC901"/>
<path d="M507.828 654.862H492.958V666.765H507.828V654.862Z" fill="#FBC901"/>
<path d="M532.215 654.862H517.345V666.765H532.215V654.862Z" fill="#FBC901"/>
<path d="M483.442 685.216H468.572V697.119H483.442V685.216Z" fill="#FBC901"/>
<path d="M507.828 685.216H492.958V697.119H507.828V685.216Z" fill="#FBC901"/>
<path d="M532.215 685.216H517.345V697.119H532.215V685.216Z" fill="#FBC901"/>
<path d="M483.442 715.57H468.572V727.474H483.442V715.57Z" fill="#FBC901"/>
<path d="M507.828 715.57H492.958V727.474H507.828V715.57Z" fill="#FBC901"/>
<path d="M532.215 715.57H517.345V727.474H532.215V715.57Z" fill="#FBC901"/>
<path d="M453.219 474.96V739.97H384.145C381.1 738.128 378.087 736.232 375.107 734.28C374.18 733.674 373.252 733.06 372.324 732.439C371.486 731.877 370.656 731.316 369.825 730.747C366.893 728.74 363.997 726.682 361.14 724.571C358.185 722.392 355.272 720.159 352.402 717.87C348.661 714.891 344.995 711.827 341.404 708.678V434.64H361.327V402.801H381.549V372.445H383.928V402.801H398.763C401.612 402.801 404.345 403.934 406.359 405.95C408.374 407.966 409.506 410.7 409.506 413.551V434.64H412.925C421.613 434.64 430.068 437.449 437.031 442.648C443.994 447.847 449.092 455.158 451.566 463.491C451.997 464.958 452.346 466.448 452.613 467.953C453.017 470.267 453.219 472.611 453.219 474.96V474.96Z" fill="#2F2E41"/>
<path d="M421.4 458.75H373.222V462.321H421.4V458.75Z" fill="#FBC901"/>
<path d="M421.4 480.772H373.222V484.343H421.4V480.772Z" fill="#FBC901"/>
<path d="M421.4 502.793H373.222V506.364H421.4V502.793Z" fill="#FBC901"/>
<path d="M421.4 524.815H373.222V528.386H421.4V524.815Z" fill="#FBC901"/>
<path d="M421.4 546.836H373.222V550.408H421.4V546.836Z" fill="#FBC901"/>
<path d="M421.4 568.858H373.222V572.429H421.4V568.858Z" fill="#FBC901"/>
<path d="M421.4 590.88H373.222V594.451H421.4V590.88Z" fill="#FBC901"/>
<path d="M421.4 612.901H373.222V616.473H421.4V612.901Z" fill="#FBC901"/>
<path d="M421.4 634.923H373.222V638.494H421.4V634.923Z" fill="#FBC901"/>
<path d="M421.4 656.945H373.222V660.516H421.4V656.945Z" fill="#FBC901"/>
<path d="M421.4 678.966H373.222V682.538H421.4V678.966Z" fill="#FBC901"/>
<path d="M421.4 700.988H373.222V704.559H421.4V700.988Z" fill="#FBC901"/>
<path d="M392.85 409.35H377.981V421.254H392.85V409.35Z" fill="#FBC901"/>
<path d="M748.723 169.466C748.656 169.271 748.588 169.084 748.513 168.889C746.269 163.012 741.788 159 736.626 159H345.496C340.402 159 335.965 162.915 333.691 168.672C332.605 171.479 332.054 174.465 332.067 177.476L317.105 684.819C317.973 685.777 318.848 686.736 319.731 687.679C320.337 688.33 320.943 688.974 321.556 689.618L336.519 177.476C336.515 176.024 336.706 174.579 337.087 173.179C337.089 173.156 337.094 173.133 337.102 173.111C338.389 168.455 341.666 165.139 345.496 165.139H736.626C737.543 165.14 738.449 165.331 739.289 165.7C742.79 167.197 745.371 171.554 745.581 176.787C745.588 177.019 745.596 177.244 745.596 177.476L763.551 669.839C764.09 669.143 764.621 668.447 765.137 667.743C765.331 667.489 765.518 667.234 765.705 666.987C765.863 666.778 766.02 666.576 766.169 666.366C766.79 665.527 767.404 664.689 768.01 663.851V663.843L750.055 177.476C750.065 174.75 749.615 172.042 748.723 169.466V169.466ZM401.494 749.679C404.09 751.027 406.708 752.332 409.349 753.594L409.364 753.602C409.88 753.849 410.396 754.096 410.913 754.336C410.92 754.336 410.92 754.343 410.928 754.343C410.988 754.382 411.053 754.412 411.122 754.433C411.481 754.605 411.84 754.77 412.199 754.934H665.815C666.144 754.785 666.481 754.628 666.81 754.47C667.012 754.38 667.207 754.283 667.409 754.186C668.134 753.841 668.868 753.49 669.593 753.138C670.469 752.711 671.344 752.284 672.212 751.85C673.648 751.139 675.077 750.42 676.499 749.679H401.494Z" fill="#2F2E41"/>
<path d="M747.823 221.664H334.293V226.86H747.823V221.664Z" fill="#2F2E41"/>
<path d="M753.518 286.045H330.077V291.241H753.518V286.045Z" fill="#2F2E41"/>
<path d="M398.657 386.863H394.199L409.162 161.333H413.62L398.657 386.863Z" fill="#2F2E41"/>
<path d="M690.909 388.361H686.451L668.496 161.333H672.954L690.909 388.361Z" fill="#2F2E41"/>
<path d="M755.763 380.782H330.826V395.652H755.763V380.782Z" fill="#2F2E41"/>
<path d="M544.061 372.578H548.519C549.592 372.578 550.655 372.789 551.646 373.2C552.638 373.611 553.539 374.214 554.298 374.973C555.057 375.732 555.659 376.634 556.07 377.626C556.48 378.619 556.692 379.682 556.692 380.756V380.756H535.887C535.887 378.587 536.748 376.507 538.281 374.973C539.814 373.439 541.893 372.578 544.061 372.578V372.578Z" fill="#2F2E41"/>
<path d="M393.189 731.533C386.456 738.27 386.98 741.077 384.414 739.528C381.369 737.686 378.357 735.79 375.376 733.838C374.449 733.232 373.521 732.618 372.593 731.997C371.756 731.435 370.925 730.874 370.095 730.305C367.162 728.299 364.267 726.24 361.409 724.129C358.454 721.95 355.541 719.717 352.671 717.429C348.93 714.449 345.264 711.385 341.673 708.236C334.977 702.382 328.556 696.233 322.409 689.79C322.214 689.588 322.02 689.386 321.825 689.176C321.212 688.532 320.606 687.888 320 687.237L323.045 676.232L326.786 515.842L327.01 467.511L327.025 463.049L330.347 393.159L330.369 388.697L332.299 294.469L332.314 290.801L332.344 285.605L321.915 275.462L337.102 226.42L337.125 221.225L337.357 172.737L337.371 168.777C345.294 161.56 356.509 160.145 370.222 161.418C370.903 161.485 371.598 161.553 372.294 161.627L372.481 164.697L372.825 170.169V170.177L375.519 213.566V213.581L375.997 221.225L376.319 226.42L377.164 240.015L365.03 285.606L365.352 290.801L367.693 328.471L368.015 333.667L368.681 344.387L371.434 388.697L371.711 393.159L372.279 402.359L372.99 413.738L373.072 415.063L373.394 420.259L374.322 435.186L374.576 439.348L375.75 458.311L375.908 460.841L375.975 461.882L376.05 463.05L376.169 464.996L376.327 467.511L376.888 476.54L377.12 480.328L377.344 483.898L377.501 486.481L377.763 490.644L377.965 493.863L378.489 502.352L378.713 505.923L379.095 512.129L379.327 515.842L379.357 516.291L379.858 524.376L380.082 527.947L380.247 530.709L380.688 537.784L380.95 541.939L381.227 546.393L381.444 549.964L382.282 563.424L382.536 567.586L382.588 568.417L382.813 571.988L383.875 589.071L383.958 590.441L384.13 593.234L384.174 594.012L385.327 612.458L385.469 614.719L385.551 616.029L385.723 618.881L386.696 634.482L386.92 638.053L387.062 640.366L387.317 644.529L388.057 656.507L388.282 660.077L388.648 666.021L388.91 670.176L389.426 678.523L389.651 682.094L390.242 691.661L390.504 695.816L390.668 700.547L390.795 704.118L393.189 731.533Z" fill="white"/>
<path d="M766.027 678.912C765.825 679.152 765.616 679.384 765.406 679.624C764.89 680.23 764.359 680.829 763.82 681.428C763.813 681.435 763.813 681.443 763.805 681.45L763.783 681.473V681.48C747.699 699.637 729.48 715.78 709.521 729.556C709.454 729.608 709.384 729.655 709.311 729.699C709.064 729.878 708.818 730.043 708.571 730.215C706.783 731.443 704.98 732.656 703.162 733.838C702.271 734.422 701.381 734.999 700.483 735.568V735.575C700.476 735.575 700.476 735.575 700.468 735.583H700.454L700.439 735.598L700.394 735.62C700.371 735.635 700.356 735.642 700.334 735.657C699.646 736.099 698.965 736.533 698.269 736.968C698.06 737.11 697.85 737.237 697.641 737.364C697.274 737.596 696.9 737.828 696.526 738.06C696.159 738.285 695.785 738.517 695.411 738.742C694.94 739.026 694.469 739.318 693.997 739.595L694.027 737.125L694.072 733.838L694.289 718.731L695.037 706.664L699.474 635.238L700.177 623.934L700.334 621.389L702.331 589.251L703.012 578.216L704.561 553.362L705.257 542.058L705.937 531.136L705.967 530.709L706.027 529.691L706.065 529.07V529.062L706.858 516.381L706.887 515.842L707.449 506.873V506.858L708.249 493.862L708.758 485.703L709.326 476.539L709.783 469.196L709.887 467.511L710.164 463.049L710.179 462.87L711.9 435.096L712.349 427.857V427.85L712.82 420.259L713.142 415.063L713.808 404.448L714.511 393.159L714.788 388.697L715.768 372.856V372.849L716.314 364.03L716.86 355.197L717.668 342.276L718.199 333.666L718.521 328.471L720.855 290.801L720.96 289.169L721.184 285.605L721.94 273.418L705.713 245.555L706.902 226.42L707.224 221.225L710.636 166.336L710.74 164.697L710.927 161.627C725.576 160.018 737.523 161.201 745.85 168.777L746.082 221.225L746.104 226.42L750.84 283.846L750.848 285.605L750.87 290.801L752.793 388.697L752.815 393.159L756.107 463.049L756.129 467.511L757.835 515.842L757.902 530.709L765.975 666.545L766.027 678.912Z" fill="white"/>
<path d="M702.892 734.28C702.002 734.864 701.112 735.441 700.214 736.01V736.017C700.207 736.017 700.207 736.017 700.199 736.024H700.184L700.169 736.039L700.124 736.062C700.102 736.077 700.087 736.084 700.065 736.099C699.376 736.541 698.695 736.975 698 737.409C697.79 737.552 697.581 737.679 697.371 737.806C697.005 738.038 696.631 738.27 696.257 738.502C695.89 738.727 695.516 738.959 695.142 739.184C694.671 739.468 694.199 739.76 693.728 740.037C692.703 740.659 691.676 741.272 690.646 741.879C690.272 742.103 689.89 742.32 689.508 742.545C689.134 742.762 688.753 742.979 688.371 743.196V743.219L688.326 743.226L688.311 743.234L688.296 743.249H688.289C687.242 743.847 686.202 744.446 685.147 745.03L685.139 745.038C684.294 745.509 683.449 745.974 682.596 746.438C680.576 747.538 678.543 748.619 676.498 749.679C675.077 750.42 673.648 751.139 672.212 751.85C671.344 752.284 670.469 752.711 669.593 753.138C668.868 753.49 668.134 753.841 667.409 754.186C667.207 754.283 667.012 754.38 666.81 754.47C666.481 754.628 666.144 754.785 665.815 754.934C665.538 755.062 665.269 755.189 664.992 755.316C664.334 755.631 663.668 755.93 663.01 756.23C662.269 756.567 661.536 756.896 660.795 757.225C658.012 758.468 655.199 759.666 652.379 760.819C642.303 764.947 632.005 768.511 621.533 771.494C621.047 771.636 620.553 771.778 620.06 771.913C615.578 773.171 611.065 774.321 606.518 775.364C598.581 777.191 590.571 778.69 582.488 779.863C582.474 779.863 582.451 779.871 582.436 779.871C581.471 780.013 580.498 780.148 579.533 780.283C579.451 780.297 579.361 780.312 579.272 780.32C579.264 780.327 579.257 780.327 579.242 780.32H579.234C578.164 780.462 577.094 780.604 576.017 780.739C575.942 780.754 575.868 780.762 575.793 780.769C574.79 780.889 573.78 781.009 572.77 781.121C571.686 781.241 570.601 781.353 569.509 781.465H569.501C567.84 781.63 566.179 781.787 564.518 781.922C564.489 781.922 564.459 781.929 564.429 781.929C563.77 781.989 563.112 782.034 562.454 782.087H562.446C554.703 782.701 546.888 783.005 539 783C530.434 783 521.955 782.643 513.563 781.93C513.534 781.93 513.504 781.922 513.474 781.922C511.686 781.772 509.9 781.608 508.117 781.428C507.646 781.383 507.182 781.331 506.711 781.286C506.621 781.278 506.531 781.271 506.441 781.256C506.299 781.241 506.157 781.226 506.007 781.211C505.933 781.203 505.85 781.196 505.775 781.181C505.154 781.114 504.533 781.046 503.905 780.971C503.209 780.889 502.506 780.807 501.81 780.717C501.115 780.635 500.411 780.545 499.716 780.447C499.566 780.432 499.409 780.417 499.259 780.387C498.751 780.327 498.242 780.26 497.741 780.185C497.494 780.155 497.254 780.118 497.015 780.081C496.529 780.013 496.05 779.946 495.564 779.871C495.549 779.871 495.526 779.863 495.511 779.863C480.234 777.656 465.153 774.254 450.407 769.69H450.399C449.598 769.443 448.798 769.188 447.998 768.934C447.758 768.866 447.519 768.792 447.279 768.709C445.199 768.043 443.132 767.354 441.077 766.643C438.242 765.67 435.426 764.652 432.631 763.589C431.868 763.297 431.112 763.005 430.349 762.713C428.83 762.114 427.319 761.515 425.815 760.901C423.249 759.853 420.701 758.772 418.17 757.66H418.162V757.652C416.165 756.769 414.175 755.87 412.199 754.935C411.84 754.77 411.481 754.605 411.122 754.433C411.053 754.412 410.988 754.382 410.928 754.343C410.92 754.343 410.92 754.336 410.913 754.336C410.396 754.096 409.88 753.849 409.364 753.602L409.349 753.594C406.708 752.329 404.09 751.024 401.494 749.679C398.277 748.017 395.087 746.295 391.925 744.514C389.307 743.039 386.713 741.524 384.145 739.97C381.1 738.128 378.087 736.232 375.107 734.28H702.892Z" fill="#2F2E41"/>
<path d="M431.725 199.51C432.551 199.51 433.221 198.729 433.221 197.766C433.221 196.803 432.551 196.022 431.725 196.022C430.899 196.022 430.229 196.803 430.229 197.766C430.229 198.729 430.899 199.51 431.725 199.51Z" fill="#FBC901"/>
<path d="M522.636 201.672C523.462 201.672 524.132 200.892 524.132 199.929C524.132 198.966 523.462 198.185 522.636 198.185C521.81 198.185 521.14 198.966 521.14 199.929C521.14 200.892 521.81 201.672 522.636 201.672Z" fill="#FBC901"/>
<path d="M578.746 203.416C579.572 203.416 580.242 202.635 580.242 201.672C580.242 200.709 579.572 199.929 578.746 199.929C577.919 199.929 577.25 200.709 577.25 201.672C577.25 202.635 577.919 203.416 578.746 203.416Z" fill="#FBC901"/>
<path d="M657.66 424.012C658.486 424.012 659.156 423.342 659.156 422.515C659.156 421.688 658.486 421.018 657.66 421.018C656.834 421.018 656.164 421.688 656.164 422.515C656.164 423.342 656.834 424.012 657.66 424.012Z" fill="#FBC901"/>
<path d="M566.776 339.778C567.602 339.778 568.272 339.108 568.272 338.281C568.272 337.454 567.602 336.784 566.776 336.784C565.949 336.784 565.279 337.454 565.279 338.281C565.279 339.108 565.949 339.778 566.776 339.778Z" fill="#FBC901"/>
<path d="M491.575 416.526C492.402 416.526 493.072 415.856 493.072 415.029C493.072 414.202 492.402 413.532 491.575 413.532C490.749 413.532 490.079 414.202 490.079 415.029C490.079 415.856 490.749 416.526 491.575 416.526Z" fill="#FBC901"/>
<path d="M478.857 337.922C479.684 337.922 480.353 337.251 480.353 336.424C480.353 335.597 479.684 334.927 478.857 334.927C478.031 334.927 477.361 335.597 477.361 336.424C477.361 337.251 478.031 337.922 478.857 337.922Z" fill="#FBC901"/>
<path d="M378.608 322.201C379.434 322.201 380.104 321.53 380.104 320.703C380.104 319.876 379.434 319.206 378.608 319.206C377.782 319.206 377.112 319.876 377.112 320.703C377.112 321.53 377.782 322.201 378.608 322.201Z" fill="#FBC901"/>
<path d="M720.6 627.897L719.105 627.938L721.349 710.227L722.845 710.186L720.6 627.897Z" fill="#B3B3B3"/>
<path d="M743.793 305.253L742.297 305.275L744.541 456.438L746.037 456.415L743.793 305.253Z" fill="#B3B3B3"/>
<path d="M692.395 461.443H671.271C670.795 461.442 670.323 461.545 669.891 461.745C669.458 461.946 669.075 462.239 668.767 462.603C668.473 462.547 668.174 462.518 667.874 462.517C666.545 462.517 665.271 463.046 664.331 463.986C663.391 464.926 662.863 466.201 662.863 467.531C662.863 468.861 663.391 470.136 664.331 471.076C665.271 472.017 666.545 472.545 667.874 472.545C668.63 472.545 669.377 472.371 670.056 472.038L670.408 476.37L671.808 493.494C671.875 493.707 671.964 493.913 672.075 494.108C672.358 494.628 672.775 495.062 673.284 495.365C673.793 495.667 674.374 495.827 674.965 495.827H688.702C689.294 495.827 689.875 495.667 690.384 495.364C690.894 495.062 691.312 494.628 691.597 494.108C691.704 493.913 691.792 493.707 691.859 493.494L695.553 465.72C695.704 465.225 695.738 464.702 695.651 464.192C695.565 463.683 695.359 463.2 695.052 462.784C694.745 462.368 694.345 462.03 693.883 461.797C693.422 461.564 692.912 461.443 692.395 461.443V461.443ZM667.874 471.114C666.925 471.112 666.016 470.734 665.346 470.062C664.675 469.391 664.299 468.48 664.299 467.531C664.299 466.582 664.675 465.671 665.346 465C666.016 464.328 666.925 463.95 667.874 463.949C667.938 463.949 667.998 463.966 668.063 463.97C667.921 464.547 667.939 465.152 668.114 465.719L669.626 470.636C669.094 470.946 668.49 471.111 667.874 471.114V471.114Z" fill="#F2F2F2"/>
<path d="M685.146 745.033L681.623 738.61L683.358 737.794L684.742 737.135L690.78 734.283L694.408 732.569L695.904 731.857L697.094 731.296L699.069 734.283L700.064 735.788L700.214 736.012V736.02C700.182 736.032 700.152 736.047 700.124 736.065C700.101 736.08 700.086 736.087 700.064 736.102C699.376 736.544 698.695 736.978 697.999 737.412C697.79 737.555 697.58 737.682 697.371 737.809C697.004 738.041 696.63 738.273 696.256 738.505C695.889 738.73 695.515 738.962 695.141 739.186C693.652 740.1 692.149 740.998 690.645 741.881C690.271 742.106 689.889 742.323 689.508 742.548C689.134 742.765 688.752 742.982 688.371 743.199V743.221L688.326 743.229L688.311 743.236L688.296 743.251H688.288C687.241 743.85 686.201 744.449 685.146 745.033Z" fill="#2F2E41"/>
<g opacity="0.49">
<path d="M681.586 450.189C681.757 449.963 681.912 449.725 682.049 449.477C681.783 449.587 681.509 449.673 681.228 449.735L681.586 450.189Z" fill="white"/>
<path d="M683.518 434.916C682.172 432.336 680.66 429.772 680.12 426.912C679.579 424.047 680.054 421.103 680.219 418.192C680.384 415.281 680.177 412.169 678.495 409.789C676.199 417.061 673.925 425.073 676.861 432.11C678.135 435.163 680.306 437.762 681.706 440.759C682.984 443.496 683.502 446.908 682.049 449.477C684.418 448.519 685.901 445.802 685.993 443.185C686.095 440.276 684.865 437.496 683.518 434.916Z" fill="white"/>
</g>
<g opacity="0.49">
<path d="M679.048 459.921C679.114 459.833 679.174 459.741 679.227 459.644C679.124 459.687 679.018 459.721 678.908 459.745L679.048 459.921Z" fill="white"/>
<path d="M679.798 453.987C679.208 453.021 678.763 451.973 678.478 450.878C678.354 449.751 678.367 448.613 678.516 447.49C678.664 446.357 678.428 445.208 677.846 444.225C676.955 447.05 676.071 450.163 677.212 452.897C677.707 454.083 678.55 455.093 679.094 456.257C679.375 456.774 679.534 457.348 679.557 457.935C679.58 458.523 679.467 459.108 679.227 459.644C679.684 459.419 680.07 459.072 680.34 458.64C680.611 458.208 680.756 457.709 680.76 457.2C680.72 456.064 680.389 454.958 679.798 453.987Z" fill="white"/>
</g>
<path d="M385.813 230.028H338.681C337.292 230.028 335.96 229.476 334.978 228.494C333.996 227.511 333.444 226.178 333.444 224.788C333.444 223.398 333.996 222.065 334.978 221.083C335.96 220.1 337.292 219.548 338.681 219.548H385.813C387.202 219.548 388.534 220.1 389.516 221.083C390.498 222.065 391.05 223.398 391.05 224.788C391.05 226.178 390.498 227.511 389.516 228.494C388.534 229.476 387.202 230.028 385.813 230.028V230.028Z" fill="#2F2E41"/>
<path d="M789.814 169.765H295.3C293.911 169.765 292.579 169.213 291.597 168.23C290.615 167.247 290.063 165.915 290.063 164.525C290.063 163.135 290.615 161.802 291.597 160.819C292.579 159.836 293.911 159.284 295.3 159.284H789.814C791.202 159.284 792.535 159.836 793.517 160.819C794.499 161.802 795.05 163.135 795.05 164.525C795.05 165.915 794.499 167.247 793.517 168.23C792.535 169.213 791.202 169.765 789.814 169.765V169.765Z" fill="#22323F"/>
<path d="M369.354 282.431H322.222C320.833 282.431 319.501 281.879 318.519 280.897C317.537 279.914 316.985 278.581 316.985 277.191C316.985 275.801 317.537 274.468 318.519 273.486C319.501 272.503 320.833 271.951 322.222 271.951H369.354C370.743 271.951 372.075 272.503 373.057 273.486C374.039 274.468 374.591 275.801 374.591 277.191C374.591 278.581 374.039 279.914 373.057 280.897C372.075 281.879 370.743 282.431 369.354 282.431V282.431Z" fill="#2F2E41"/>
<path d="M744.915 230.028H697.783C696.394 230.028 695.062 229.476 694.08 228.494C693.098 227.511 692.546 226.178 692.546 224.788C692.546 223.398 693.098 222.065 694.08 221.083C695.062 220.1 696.394 219.548 697.783 219.548H744.915C746.304 219.548 747.636 220.1 748.618 221.083C749.6 222.065 750.152 223.398 750.152 224.788C750.152 226.178 749.6 227.511 748.618 228.494C747.636 229.476 746.304 230.028 744.915 230.028V230.028Z" fill="#2F2E41"/>
<path d="M763.618 280.186H716.486C715.097 280.186 713.765 279.634 712.783 278.651C711.801 277.668 711.249 276.335 711.249 274.945C711.249 273.556 711.801 272.223 712.783 271.24C713.765 270.257 715.097 269.705 716.486 269.705H763.618C765.007 269.705 766.339 270.257 767.321 271.24C768.303 272.223 768.855 273.556 768.855 274.945C768.855 276.335 768.303 277.668 767.321 278.651C766.339 279.634 765.007 280.186 763.618 280.186V280.186Z" fill="#2F2E41"/>
<path d="M341.299 298.516L339.803 298.538L342.047 449.7L343.544 449.678L341.299 298.516Z" fill="#B3B3B3"/>
<path d="M356.531 471.752L355.035 471.774L357.279 622.937L358.776 622.915L356.531 471.752Z" fill="#B3B3B3"/>
<path d="M339.803 600.198L338.307 600.239L340.552 682.529L342.047 682.488L339.803 600.198Z" fill="#B3B3B3"/>
<path d="M637.811 652.886V650.028C637.811 648.937 637.393 647.887 636.644 647.093C635.895 646.299 634.872 645.822 633.782 645.759V634.601H632.835V645.746H628.569V652.86H608.425V734.672H652.978V668.924C652.978 664.818 651.406 660.867 648.585 657.884C645.764 654.901 641.909 653.112 637.811 652.886V652.886Z" fill="#2F2E41"/>
<path d="M621.696 664.48H615.772V669.222H621.696V664.48Z" fill="#FBC901"/>
<path d="M631.413 664.48H625.488V669.222H631.413V664.48Z" fill="#FBC901"/>
<path d="M641.129 664.48H635.204V669.222H641.129V664.48Z" fill="#FBC901"/>
<path d="M621.696 676.574H615.772V681.316H621.696V676.574Z" fill="#FBC901"/>
<path d="M631.413 676.574H625.488V681.316H631.413V676.574Z" fill="#FBC901"/>
<path d="M641.129 676.574H635.204V681.316H641.129V676.574Z" fill="#FBC901"/>
<path d="M621.696 688.667H615.772V693.41H621.696V688.667Z" fill="#FBC901"/>
<path d="M631.413 688.667H625.488V693.41H631.413V688.667Z" fill="#FBC901"/>
<path d="M641.129 688.667H635.204V693.41H641.129V688.667Z" fill="white"/>
<path d="M621.696 700.761H615.772V705.504H621.696V700.761Z" fill="#FBC901"/>
<path d="M631.413 700.761H625.488V705.504H631.413V700.761Z" fill="#FBC901"/>
<path d="M641.129 700.761H635.204V705.504H641.129V700.761Z" fill="white"/>
<path d="M621.696 712.855H615.772V717.598H621.696V712.855Z" fill="#FBC901"/>
<path d="M631.413 712.855H625.488V717.598H631.413V712.855Z" fill="#FBC901"/>
<path d="M641.129 712.855H635.204V717.598H641.129V712.855Z" fill="white"/>
<path d="M621.696 724.949H615.772V729.692H621.696V724.949Z" fill="#FBC901"/>
<path d="M631.413 724.949H625.488V729.692H631.413V724.949Z" fill="white"/>
<path d="M641.129 724.949H635.204V729.692H641.129V724.949Z" fill="#FBC901"/>
<path d="M593.602 613.021H592.238V604.617C592.238 603.481 591.787 602.392 590.984 601.589C590.182 600.786 589.093 600.334 587.958 600.334H582.048V588.241H581.1V600.334H573.042V613.021H565.103V734.672H609.656V629.086C609.656 626.976 609.241 624.887 608.434 622.938C607.627 620.989 606.445 619.218 604.954 617.726C603.463 616.235 601.693 615.051 599.746 614.244C597.798 613.437 595.71 613.021 593.602 613.021V613.021Z" fill="#2F2E41"/>
<path d="M596.977 622.625H577.782V624.048H596.977V622.625Z" fill="#FBC901"/>
<path d="M596.977 631.399H577.782V632.822H596.977V631.399Z" fill="#FBC901"/>
<path d="M596.977 640.173H577.782V641.596H596.977V640.173Z" fill="#FBC901"/>
<path d="M596.977 648.947H577.782V650.37H596.977V648.947Z" fill="#FBC901"/>
<path d="M596.977 657.721H577.782V659.144H596.977V657.721Z" fill="#FBC901"/>
<path d="M596.977 666.495H577.782V667.918H596.977V666.495Z" fill="#FBC901"/>
<path d="M596.977 675.269H577.782V676.692H596.977V675.269Z" fill="#FBC901"/>
<path d="M596.977 684.043H577.782V685.466H596.977V684.043Z" fill="#FBC901"/>
<path d="M596.977 692.817H577.782V694.24H596.977V692.817Z" fill="#FBC901"/>
<path d="M596.977 701.591H577.782V703.014H596.977V701.591Z" fill="#FBC901"/>
<path d="M596.977 710.365H577.782V711.788H596.977V710.365Z" fill="#FBC901"/>
<path d="M596.977 719.139H577.782V720.562H596.977V719.139Z" fill="#FBC901"/>
<path d="M585.602 602.943H579.678V607.686H585.602V602.943Z" fill="#FBC901"/>
<path d="M775.303 660.792V667.768C774.226 669.146 773.134 670.524 772.027 671.879C771.787 672.178 771.548 672.47 771.316 672.762C770.949 673.204 770.59 673.645 770.231 674.079C770.111 674.229 769.992 674.371 769.864 674.521C769.251 675.255 768.638 675.988 768.009 676.722C768.009 676.722 768.017 676.73 768.009 676.73C767.403 677.448 766.79 678.167 766.169 678.885C765.832 679.282 765.488 679.672 765.136 680.068C764.62 680.675 764.089 681.274 763.55 681.872C763.543 681.88 763.543 681.887 763.535 681.895L763.513 681.917V660.791L775.303 660.792Z" fill="#2F2E41"/>
<path d="M790.685 646.238C788.725 649.263 786.712 652.242 784.647 655.177C784.647 655.184 784.64 655.184 784.632 655.192C783.398 656.959 782.134 658.71 780.862 660.447C780.046 661.555 779.223 662.658 778.393 663.756C777.563 664.857 776.725 665.947 775.879 667.028C775.692 667.275 775.498 667.522 775.303 667.769C774.226 669.146 773.134 670.524 772.026 671.879C771.787 672.178 771.548 672.47 771.316 672.762C770.949 673.204 770.59 673.645 770.231 674.079C770.104 674.229 769.984 674.371 769.864 674.521C769.251 675.255 768.637 675.988 768.009 676.722C768.009 676.722 768.017 676.73 768.009 676.73C767.403 677.448 766.79 678.167 766.169 678.885C765.832 679.282 765.488 679.672 765.136 680.068H740.71C738.103 680.067 735.604 679.03 733.761 677.185C731.917 675.341 730.881 672.84 730.879 670.231V656.075C730.882 653.467 731.919 650.967 733.762 649.123C735.605 647.279 738.104 646.242 740.71 646.238H790.685Z" fill="#2F2E41"/>
<path d="M803.603 525.069C802.102 524.55 800.524 524.287 798.935 524.29H794.918C793.454 524.291 791.999 524.511 790.601 524.942C787.651 525.869 785.074 527.714 783.243 530.207C781.412 532.7 780.423 535.712 780.419 538.806V656.9C780.419 657.342 780.441 657.776 780.479 658.203C780.544 658.96 780.671 659.712 780.86 660.448C782.132 658.712 783.396 656.96 784.631 655.193C784.638 655.186 784.646 655.186 784.646 655.178C786.711 652.244 788.723 649.264 790.683 646.24C791.738 644.615 792.785 642.976 793.81 641.329C801.217 629.438 807.777 617.041 813.441 604.227V538.806C813.438 535.776 812.488 532.822 810.724 530.359C808.96 527.896 806.47 526.046 803.603 525.069V525.069Z" fill="#2F2E41"/>
<path d="M629.088 744.676L618.903 739.802L632.894 697.202L647.926 704.396L629.088 744.676Z" fill="#FFB6B6"/>
<path d="M697.371 737.809C696.63 738.273 695.89 738.73 695.141 739.186C693.653 740.1 692.149 740.998 690.645 741.881C689.889 742.323 689.126 742.765 688.371 743.199V743.221L688.326 743.229L688.311 743.236L687.159 743.521L685.505 739.149L684.742 737.135L683.665 734.283L681.69 729.065L671.291 701.591L687.458 697.601L688.064 700.079H688.072L688.371 701.306L694.019 724.229L695.171 728.915L695.209 729.058L695.904 731.857L696.503 734.283L697.169 736.993L697.371 737.809Z" fill="#FFB6B6"/>
<path d="M656.136 559.519C657.589 561.88 659.906 563.579 662.593 564.254C665.281 564.928 668.125 564.525 670.52 563.13C671.001 562.838 671.458 562.507 671.885 562.14L704.085 580.631L702.686 561.65L672.323 547.001C670.671 545.34 668.515 544.275 666.192 543.972C663.87 543.67 661.513 544.146 659.491 545.328C657.177 546.719 655.509 548.973 654.855 551.594C654.201 554.215 654.614 556.989 656.004 559.305C656.047 559.377 656.091 559.448 656.136 559.519Z" fill="#FFB6B6"/>
<path d="M690.241 573.668L695.933 577.139L721.496 592.738C723.174 593.788 725.042 594.498 726.994 594.826C728.946 595.154 730.944 595.094 732.872 594.649C734.801 594.205 736.624 593.385 738.236 592.235C739.848 591.086 741.218 589.631 742.268 587.951L742.276 587.938C744.169 584.818 744.839 581.106 744.156 577.52L732.795 520.721C732.375 518.491 731.479 516.378 730.168 514.527C728.857 512.675 727.162 511.129 725.199 509.993C723.236 508.858 721.051 508.16 718.794 507.947C716.536 507.734 714.259 508.012 712.119 508.76C708.521 510.026 705.54 512.615 703.782 516.001C702.025 519.388 701.622 523.317 702.657 526.99L714.538 567.299L696.327 558.804L690.241 573.668Z" fill="#FBC901"/>
<path d="M795.06 629.673C795.052 629.65 795.037 629.568 795.015 629.441L794.992 629.358C794.94 629.089 794.88 628.789 794.813 628.46C793.286 620.875 791.326 613.384 788.94 606.024C787.527 601.517 785.654 597.167 783.352 593.043C783.277 592.908 783.194 592.774 783.112 592.639L782.835 592.19L780.509 593.043L780.419 593.073L745.047 606.047L734.82 609.797L734.499 609.917L732.756 617.029L708.299 613.862L688.369 611.279L682.646 610.538C680.165 610.215 677.644 610.388 675.231 611.049C672.818 611.71 670.56 612.844 668.589 614.386C666.532 615.982 664.813 617.971 663.532 620.239C662.252 622.506 661.435 625.005 661.13 627.592C661.055 628.161 661.01 628.737 660.988 629.306L659.259 693.814V693.897L660.06 695.499L676.781 729.066H688.369L695.207 729.059H700.766L689.207 699.796L689.469 699.399C690.556 697.731 691.242 695.833 691.472 693.854C691.702 691.876 691.469 689.871 690.793 687.997L692.095 684.224C694.795 676.431 693.516 672.688 691.9 667.957C690.449 664.11 689.596 660.063 689.372 655.957L689.102 650.619C695.888 651.809 702.209 653.134 708.299 654.467C710.334 654.909 712.349 655.355 714.344 655.807C720.022 657.072 725.506 658.292 730.878 659.311C741.756 661.384 752.177 662.649 762.883 661.863C763.092 661.848 763.302 661.833 763.511 661.811C766.115 661.601 768.733 661.264 771.381 660.793C772.87 660.523 774.367 660.216 775.878 659.857C776.297 659.752 776.723 659.647 777.142 659.543C778.305 659.236 779.426 658.786 780.479 658.203C781.976 657.366 783.37 656.356 784.631 655.193C784.638 655.186 784.646 655.186 784.646 655.178C786.711 652.244 788.723 649.264 790.683 646.24C791.738 644.615 792.785 642.976 793.81 641.329C795.307 637.219 795.875 633.072 795.06 629.673Z" fill="#2F2E41"/>
<path d="M795.307 617.553C795.194 617.074 795.052 616.587 794.903 616.115C793.715 612.543 792.331 609.04 790.758 605.62C788.992 601.727 786.875 597.557 784.354 593.043C783.135 590.857 781.823 588.584 780.419 586.223C779.716 585.041 778.985 583.835 778.227 582.608C778.197 582.551 778.165 582.496 778.13 582.443L777.913 582.083L742.915 586.77L729.883 588.514L729.105 595.012L728.918 596.622C728.91 596.622 728.91 596.622 728.918 596.629L728.394 601.016V601.023L727.698 606.818L727.638 606.81L708.299 604.302L688.369 601.72L677.663 600.335C675.182 600.011 672.662 600.185 670.248 600.845C667.835 601.506 665.577 602.64 663.606 604.183C661.549 605.778 659.83 607.768 658.55 610.035C657.269 612.302 656.452 614.802 656.147 617.388C656.08 617.912 656.035 618.451 656.012 618.983L645.913 642.931C639.869 657.253 636.02 672.406 634.496 687.878L627.09 711.571L628.145 711.669L643.84 713.128L647.985 713.518L657.112 700.185C658.152 698.665 659.14 697.101 660.06 695.499C661.575 692.882 662.922 690.172 664.092 687.384L683.835 640.371C685.361 640.633 686.873 640.882 688.369 641.119C695.289 642.242 701.933 643.158 708.299 643.867C729 646.18 746.925 646.36 762.883 644.398C767.364 643.852 771.696 643.133 775.878 642.242C777.411 641.92 778.925 641.573 780.419 641.202C780.77 641.119 781.114 641.037 781.459 640.947C784.55 640.149 787.393 638.588 789.726 636.407C792.059 634.225 793.808 631.493 794.813 628.46C796.012 624.946 796.184 621.161 795.307 617.553V617.553Z" fill="#2F2E41"/>
<path d="M720.886 476.163C734.256 476.163 745.095 465.075 745.095 451.399C745.095 437.722 734.256 426.635 720.886 426.635C707.516 426.635 696.678 437.722 696.678 451.399C696.678 465.075 707.516 476.163 720.886 476.163Z" fill="#FFB6B6"/>
<path d="M778.369 583.438C778.331 583.161 778.287 582.884 778.227 582.608C777.651 579.568 776.154 576.589 774.711 573.699C773.334 570.944 772.025 568.339 771.486 565.749C770.955 563.196 771.269 560.636 771.576 558.165C771.905 555.485 772.249 552.715 771.479 550.028C767.571 536.303 762.203 523.036 755.469 510.456C753.769 504.924 750.512 500 746.087 496.275C741.661 492.549 736.256 490.179 730.519 489.45C731.188 488.198 731.467 486.774 731.319 485.362C731.225 484.45 730.952 483.565 730.514 482.76C730.076 481.954 729.482 481.243 728.768 480.669C728.082 480.115 727.293 479.704 726.446 479.457C725.6 479.21 724.714 479.134 723.838 479.231L712.586 480.496C710.782 480.723 709.14 481.653 708.018 483.085C706.896 484.516 706.384 486.333 706.593 488.14C706.656 488.696 706.782 489.244 706.967 489.772C696.524 503.082 691.16 515.21 690.666 526.679V526.686C690.606 528.011 690.613 529.337 690.688 530.661C690.925 534.943 691.855 539.157 693.441 543.141C695.315 547.742 697.823 552.059 700.893 555.964C701.521 556.758 702.172 557.536 702.845 558.3C703.474 559.049 704.177 559.835 704.955 560.658L706.923 563.742L708.756 566.625L718.556 589.255L723.546 589.091L724.242 594.069L724.406 595.229L727.638 606.81L727.878 607.679L732.299 605.575L758.678 593.043L778.399 583.671L778.369 583.438Z" fill="#FBC901"/>
<path opacity="0.2" d="M693.737 543.021C695.987 548.534 699.149 553.628 703.09 558.089C703.766 558.895 704.479 559.688 705.225 560.481L709.054 566.494C723.171 555.906 734.608 514.217 734.608 514.217L718.681 511.116L693.737 543.021Z" fill="black"/>
<path d="M684.095 478.476C685.489 480.873 685.894 483.721 685.223 486.412C684.552 489.103 682.858 491.427 680.501 492.887C680.017 493.176 679.51 493.425 678.986 493.631L680.113 530.765L664.043 520.642L665.436 486.931C664.752 484.688 664.83 482.281 665.657 480.086C666.484 477.892 668.013 476.033 670.007 474.8C672.312 473.405 675.076 472.983 677.691 473.627C680.307 474.271 682.559 475.929 683.954 478.235C684.002 478.315 684.049 478.395 684.095 478.476Z" fill="#FFB6B6"/>
<path d="M681.526 516.748L663.853 519.262L664.613 555.883C664.657 558.496 665.368 561.053 666.678 563.313C667.988 565.574 669.854 567.461 672.099 568.796V568.796C674.841 570.41 678.033 571.089 681.194 570.73C684.355 570.371 687.314 568.993 689.625 566.805L731.348 526.647C734.283 523.86 736.04 520.054 736.257 516.011C736.474 511.968 735.134 507.995 732.513 504.91V504.91C729.946 501.869 726.276 499.972 722.31 499.639C718.345 499.305 714.41 500.561 711.371 503.13C711.252 503.231 711.135 503.333 711.019 503.437C710.606 503.806 710.214 504.197 709.844 504.608L682.294 536.322L681.526 516.748Z" fill="#FBC901"/>
<path d="M632.342 737.72L621.322 732.435L619.594 731.604L616.833 738.387L597.561 742.631C596.608 742.84 595.747 743.349 595.104 744.083C594.46 744.816 594.068 745.736 593.984 746.709C593.901 747.682 594.13 748.655 594.639 749.488C595.148 750.321 595.91 750.969 596.813 751.338L615.643 759.026L621.621 753.644L620.155 760.868L627.247 763.765L635.02 739.008L632.342 737.72Z" fill="#2F2E41"/>
<path d="M785.665 440.659C781.55 435.857 779.594 429.486 776.304 424.034C773.015 418.581 767.29 413.701 761.243 414.97C757.074 415.844 753.852 419.525 752.221 423.629C750.59 427.733 750.285 432.259 749.999 436.693C750.1 427.581 744.101 418.748 735.837 415.841C727.574 412.934 717.684 416.177 712.491 423.497C710.225 421.395 707.268 420.198 704.179 420.133C701.09 420.069 698.084 421.14 695.732 423.145C691.088 427.298 690.06 435.205 693.475 440.503C696.891 445.801 704.289 447.775 709.717 444.837L711.636 446.603C710.556 450.384 712.651 454.849 716.172 456.273C719.028 457.427 723.059 457.235 724.128 460.233C724.874 462.328 723.479 464.565 721.994 466.175C720.51 467.785 718.747 469.447 718.569 471.675C718.299 475.037 721.771 477.392 724.927 478.101C732.536 479.811 740.979 476.285 745.365 469.565C745.45 469.436 745.542 469.306 745.641 469.176C748.102 466.027 749.895 462.409 750.911 458.544C751.928 454.678 752.145 450.645 751.552 446.693C751.305 445.139 751.554 443.984 752.624 443.616C757.249 442.027 770.208 445.363 774.13 448.379C778.052 451.395 781.193 455.386 784.97 458.596C788.748 461.806 793.562 464.283 798.359 463.408C802.201 462.708 805.469 459.917 807.667 456.551C809.865 453.185 811.13 449.261 812.263 445.361C803.768 450.272 792.142 448.216 785.665 440.659Z" fill="#2F2E41"/>
<path d="M709.251 730.001V730.166L709.042 730.143C708.795 730.323 708.548 730.488 708.301 730.66C706.513 731.887 704.71 733.095 702.892 734.283C702.002 734.867 701.111 735.443 700.214 736.012V736.02C700.206 736.02 700.199 736.027 700.191 736.027H700.184L700.169 736.042L700.124 736.065C700.101 736.08 700.086 736.087 700.064 736.102V597.713C700.064 593.701 698.717 590.444 697.064 590.437H572.508C570.847 590.444 569.508 593.701 569.501 597.713V781.468C567.84 781.633 566.179 781.79 564.518 781.925C564.488 781.925 564.458 781.932 564.428 781.932C563.77 781.992 563.111 782.037 562.453 782.09H562.446C562.049 781.356 561.66 780.615 561.271 779.866V588.273C561.271 587.165 561.316 586.05 561.391 584.949C561.498 583.438 561.685 581.934 561.952 580.443C563.216 573.488 566.074 568.779 569.321 568.764H700.244C700.717 568.767 701.186 568.867 701.62 569.056C702.258 569.339 702.835 569.743 703.318 570.246C703.975 570.929 704.536 571.697 704.987 572.53C706.588 575.352 707.732 579.559 708.136 584.455C708.136 584.5 708.144 584.545 708.144 584.59C708.249 585.803 708.301 587.038 708.293 588.273L708.398 604.316L708.465 613.883L708.667 643.903L708.742 654.563L709.251 730.001Z" fill="#2F2E41"/>
<path d="M611.279 524.257L602.615 562.403L597.078 568.471H593.084L609.546 499.115L610.36 510.898V510.906L611.279 524.257Z" fill="#2F2E41"/>
<path d="M652.975 563.241L602.147 562.919L597.636 562.889L594.419 562.867L590.671 562.844H590.641C590.097 562.845 589.576 563.06 589.189 563.443L582.86 569.776C582.72 569.914 582.606 570.077 582.524 570.255C582.484 570.306 582.452 570.361 582.426 570.42C582.289 570.739 582.233 571.086 582.262 571.431C582.29 571.777 582.404 572.11 582.591 572.401C582.779 572.693 583.036 572.934 583.338 573.102C583.641 573.271 583.98 573.363 584.327 573.37H650.169C650.565 573.368 650.951 573.255 651.285 573.043C651.618 572.831 651.885 572.529 652.055 572.172L652.571 571.049L653.633 568.766L654.838 566.19C654.966 565.916 655.033 565.617 655.032 565.315C655.029 564.768 654.812 564.245 654.427 563.857C654.043 563.469 653.521 563.248 652.975 563.241Z" fill="#2F2E41"/>
<path opacity="0.17" d="M652.571 571.047L652.051 572.174C651.882 572.53 651.616 572.832 651.283 573.043C650.951 573.255 650.565 573.368 650.171 573.371H584.326C583.979 573.364 583.64 573.273 583.337 573.104C583.035 572.935 582.778 572.695 582.591 572.403C582.403 572.112 582.29 571.779 582.262 571.433C582.234 571.088 582.291 570.741 582.428 570.423C582.451 570.363 582.484 570.308 582.523 570.258L652.571 571.047Z" fill="black"/>
<path opacity="0.17" d="M610.36 510.898V510.906L596.264 568.471H593.084L609.546 499.115L610.36 510.898Z" fill="black"/>
<path d="M627.658 521.446L607.706 369.544C607.633 368.975 607.337 368.458 606.883 368.107L593.147 350.904L591.913 349.953C591.455 349.607 590.881 349.453 590.312 349.526L588.247 349.803C587.677 349.877 587.161 350.174 586.81 350.629C586.459 351.083 586.303 351.659 586.377 352.229V352.229L607.055 509.618V509.625L608.319 519.252L609.823 530.684V530.699L612.157 548.486C612.194 548.79 612.297 549.083 612.459 549.345C612.62 549.606 612.836 549.829 613.092 549.998C613.344 550.171 613.629 550.289 613.93 550.343C614.231 550.397 614.539 550.387 614.835 550.312L616.145 549.983C616.646 549.854 617.086 549.551 617.387 549.129L617.97 548.298L618.239 547.909L627.277 522.98C627.594 522.536 627.73 521.987 627.658 521.446V521.446Z" fill="#2F2E41"/>
<path opacity="0.17" d="M593.144 350.904L618.242 547.912L617.969 548.298L617.388 549.127C617.087 549.549 616.647 549.852 616.145 549.981L614.834 550.311C614.537 550.384 614.228 550.394 613.928 550.34C613.627 550.286 613.34 550.169 613.088 549.997C612.835 549.825 612.621 549.601 612.461 549.341C612.301 549.08 612.197 548.789 612.157 548.485L586.38 352.231C586.305 351.661 586.46 351.085 586.809 350.629C587.159 350.173 587.676 349.875 588.245 349.8L590.315 349.528C590.596 349.49 590.882 349.508 591.155 349.582C591.429 349.655 591.685 349.783 591.909 349.956L593.144 350.904Z" fill="black"/>
<path d="M593.883 356.538L607.202 375.561L623.033 496.089L614.45 513.127L593.883 356.538Z" fill="#FBC901"/>
<path d="M794.934 599.54C794.934 600.857 794.535 602.142 793.79 603.228C793.044 604.313 791.988 605.146 790.76 605.618C790.177 605.842 789.564 605.978 788.942 606.023C788.777 606.038 788.605 606.045 788.44 606.045H775.879V667.027C775.692 667.274 775.498 667.522 775.303 667.768C774.226 669.146 773.134 670.523 772.026 671.878C771.787 672.178 771.548 672.47 771.316 672.762C770.949 673.204 770.59 673.645 770.231 674.079C770.104 674.229 769.984 674.371 769.864 674.521C769.251 675.255 768.637 675.988 768.009 676.722C768.009 676.722 768.017 676.73 768.009 676.73C767.403 677.448 766.79 678.167 766.169 678.885C765.035 678.253 764.122 677.289 763.55 676.123C763.543 676.116 763.543 676.108 763.535 676.093C763.526 676.076 763.519 676.059 763.513 676.041C763.093 675.165 762.878 674.205 762.884 673.233V606.045H734.725C733.894 606.05 733.07 605.89 732.301 605.574C731.331 605.186 730.47 604.57 729.79 603.778C729.11 602.985 728.631 602.04 728.396 601.022V601.015C728.045 599.536 728.231 597.982 728.919 596.628C728.912 596.62 728.912 596.62 728.919 596.62C729.212 596.028 729.599 595.487 730.064 595.018C730.064 595.011 730.064 595.011 730.071 595.003C730.678 594.383 731.401 593.89 732.201 593.553C733 593.216 733.858 593.043 734.725 593.042H788.44C790.162 593.043 791.814 593.728 793.031 594.946C794.249 596.165 794.933 597.817 794.934 599.54V599.54Z" fill="#2F2E41"/>
<path d="M794.503 474.27C791.829 474.269 789.181 474.796 786.711 475.82C784.241 476.844 781.996 478.345 780.106 480.237C778.215 482.129 776.715 484.374 775.692 486.846C774.669 489.318 774.142 491.967 774.142 494.643V494.643C774.143 499.369 775.786 503.948 778.789 507.596C781.792 511.243 785.968 513.733 790.604 514.639V547.96H803.6V474.27H794.503Z" fill="#2F2E41"/>
<path d="M712.227 422.4C717.79 429.791 725.063 447.643 722.418 456.51Z" fill="#FD6584"/>
</g>
<g filter="url(#filter0_dii_117_2)">
<circle cx="90.5" cy="82.5" r="58.5" fill="#FBC901"/>
</g>
<g filter="url(#filter1_ii_117_2)">
<path d="M78.2486 797.138C79.5372 793.656 84.4628 793.656 85.7514 797.138L97.5671 829.07C97.9723 830.164 98.8355 831.028 99.9304 831.433L131.862 843.249C135.344 844.537 135.344 849.463 131.862 850.751L99.9304 862.567C98.8355 862.972 97.9723 863.836 97.5671 864.93L85.7514 896.862C84.4628 900.344 79.5372 900.344 78.2486 896.862L66.4328 864.93C66.0277 863.836 65.1645 862.972 64.0696 862.567L32.138 850.751C28.6556 849.463 28.6556 844.537 32.138 843.249L64.0696 831.433C65.1645 831.028 66.0277 830.164 66.4328 829.07L78.2486 797.138Z" fill="#FBC901"/>
</g>
<g filter="url(#filter2_ii_117_2)">
<path d="M166.177 771.84C167.13 769.195 170.87 769.195 171.823 771.84L178.256 789.709C178.553 790.533 179.194 791.186 180.012 791.497L197.627 798.196C200.205 799.176 200.205 802.824 197.627 803.804L180.012 810.503C179.194 810.814 178.553 811.467 178.256 812.291L171.823 830.16C170.87 832.805 167.13 832.805 166.177 830.16L159.744 812.291C159.447 811.467 158.806 810.814 157.988 810.503L140.373 803.804C137.795 802.824 137.795 799.176 140.373 798.196L157.988 791.497C158.806 791.186 159.447 790.533 159.744 789.709L166.177 771.84Z" fill="#FBC901"/>
</g>
<g filter="url(#filter3_ii_117_2)">
<path d="M167.124 883.069C167.769 881.328 170.231 881.328 170.876 883.069L174.893 893.925C175.096 894.473 175.527 894.904 176.075 895.107L186.931 899.124C188.672 899.769 188.672 902.231 186.931 902.876L176.075 906.893C175.527 907.096 175.096 907.527 174.893 908.075L170.876 918.931C170.231 920.672 167.769 920.672 167.124 918.931L163.107 908.075C162.904 907.527 162.473 907.096 161.925 906.893L151.069 902.876C149.328 902.231 149.328 899.769 151.069 899.124L161.925 895.107C162.473 894.904 162.904 894.473 163.107 893.925L167.124 883.069Z" fill="#FBC901"/>
</g>
<defs>
<filter id="filter0_dii_117_2" x="0" y="0" width="181" height="181" filterUnits="userSpaceOnUse" color-interpolation-filters="sRGB">
<feFlood flood-opacity="0" result="BackgroundImageFix"/>
<feColorMatrix in="SourceAlpha" type="matrix" values="0 0 0 0 0 0 0 0 0 0 0 0 0 0 0 0 0 0 127 0" result="hardAlpha"/>
<feOffset dy="8"/>
<feGaussianBlur stdDeviation="16"/>
<feComposite in2="hardAlpha" operator="out"/>
<feColorMatrix type="matrix" values="0 0 0 0 0.984314 0 0 0 0 0.788235 0 0 0 0 0.00392157 0 0 0 0.3 0"/>
<feBlend mode="normal" in2="BackgroundImageFix" result="effect1_dropShadow_117_2"/>
<feBlend mode="normal" in="SourceGraphic" in2="effect1_dropShadow_117_2" result="shape"/>
<feColorMatrix in="SourceAlpha" type="matrix" values="0 0 0 0 0 0 0 0 0 0 0 0 0 0 0 0 0 0 127 0" result="hardAlpha"/>
<feOffset dx="16" dy="16"/>
<feGaussianBlur stdDeviation="16"/>
<feComposite in2="hardAlpha" operator="arithmetic" k2="-1" k3="1"/>
<feColorMatrix type="matrix" values="0 0 0 0 1 0 0 0 0 1 0 0 0 0 1 0 0 0 0.5 0"/>
<feBlend mode="normal" in2="shape" result="effect2_innerShadow_117_2"/>
<feColorMatrix in="SourceAlpha" type="matrix" values="0 0 0 0 0 0 0 0 0 0 0 0 0 0 0 0 0 0 127 0" result="hardAlpha"/>
<feOffset dx="-16" dy="-16"/>
<feGaussianBlur stdDeviation="16"/>
<feComposite in2="hardAlpha" operator="arithmetic" k2="-1" k3="1"/>
<feColorMatrix type="matrix" values="0 0 0 0 0.827451 0 0 0 0 0.662745 0 0 0 0 0.00784314 0 0 0 1 0"/>
<feBlend mode="normal" in2="effect2_innerShadow_117_2" result="effect3_innerShadow_117_2"/>
</filter>
<filter id="filter1_ii_117_2" x="25.5262" y="790.526" width="112.948" height="112.948" filterUnits="userSpaceOnUse" color-interpolation-filters="sRGB">
<feFlood flood-opacity="0" result="BackgroundImageFix"/>
<feBlend mode="normal" in="SourceGraphic" in2="BackgroundImageFix" result="shape"/>
<feColorMatrix in="SourceAlpha" type="matrix" values="0 0 0 0 0 0 0 0 0 0 0 0 0 0 0 0 0 0 127 0" result="hardAlpha"/>
<feOffset dx="4" dy="4"/>
<feGaussianBlur stdDeviation="4"/>
<feComposite in2="hardAlpha" operator="arithmetic" k2="-1" k3="1"/>
<feColorMatrix type="matrix" values="0 0 0 0 1 0 0 0 0 1 0 0 0 0 1 0 0 0 0.5 0"/>
<feBlend mode="normal" in2="shape" result="effect1_innerShadow_117_2"/>
<feColorMatrix in="SourceAlpha" type="matrix" values="0 0 0 0 0 0 0 0 0 0 0 0 0 0 0 0 0 0 127 0" result="hardAlpha"/>
<feOffset dx="-4" dy="-4"/>
<feGaussianBlur stdDeviation="4"/>
<feComposite in2="hardAlpha" operator="arithmetic" k2="-1" k3="1"/>
<feColorMatrix type="matrix" values="0 0 0 0 0.827451 0 0 0 0 0.662745 0 0 0 0 0.00784314 0 0 0 1 0"/>
<feBlend mode="normal" in2="effect1_innerShadow_117_2" result="effect2_innerShadow_117_2"/>
</filter>
<filter id="filter2_ii_117_2" x="134.439" y="765.856" width="69.1211" height="70.2877" filterUnits="userSpaceOnUse" color-interpolation-filters="sRGB">
<feFlood flood-opacity="0" result="BackgroundImageFix"/>
<feBlend mode="normal" in="SourceGraphic" in2="BackgroundImageFix" result="shape"/>
<feColorMatrix in="SourceAlpha" type="matrix" values="0 0 0 0 0 0 0 0 0 0 0 0 0 0 0 0 0 0 127 0" result="hardAlpha"/>
<feOffset dx="4" dy="4"/>
<feGaussianBlur stdDeviation="4"/>
<feComposite in2="hardAlpha" operator="arithmetic" k2="-1" k3="1"/>
<feColorMatrix type="matrix" values="0 0 0 0 1 0 0 0 0 1 0 0 0 0 1 0 0 0 0.5 0"/>
<feBlend mode="normal" in2="shape" result="effect1_innerShadow_117_2"/>
<feColorMatrix in="SourceAlpha" type="matrix" values="0 0 0 0 0 0 0 0 0 0 0 0 0 0 0 0 0 0 127 0" result="hardAlpha"/>
<feOffset dx="-4" dy="-4"/>
<feGaussianBlur stdDeviation="4"/>
<feComposite in2="hardAlpha" operator="arithmetic" k2="-1" k3="1"/>
<feColorMatrix type="matrix" values="0 0 0 0 0.827451 0 0 0 0 0.662745 0 0 0 0 0.00784314 0 0 0 1 0"/>
<feBlend mode="normal" in2="effect1_innerShadow_117_2" result="effect2_innerShadow_117_2"/>
</filter>
<filter id="filter3_ii_117_2" x="145.763" y="877.763" width="46.4738" height="46.4738" filterUnits="userSpaceOnUse" color-interpolation-filters="sRGB">
<feFlood flood-opacity="0" result="BackgroundImageFix"/>
<feBlend mode="normal" in="SourceGraphic" in2="BackgroundImageFix" result="shape"/>
<feColorMatrix in="SourceAlpha" type="matrix" values="0 0 0 0 0 0 0 0 0 0 0 0 0 0 0 0 0 0 127 0" result="hardAlpha"/>
<feOffset dx="4" dy="4"/>
<feGaussianBlur stdDeviation="4"/>
<feComposite in2="hardAlpha" operator="arithmetic" k2="-1" k3="1"/>
<feColorMatrix type="matrix" values="0 0 0 0 1 0 0 0 0 1 0 0 0 0 1 0 0 0 0.5 0"/>
<feBlend mode="normal" in2="shape" result="effect1_innerShadow_117_2"/>
<feColorMatrix in="SourceAlpha" type="matrix" values="0 0 0 0 0 0 0 0 0 0 0 0 0 0 0 0 0 0 127 0" result="hardAlpha"/>
<feOffset dx="-4" dy="-4"/>
<feGaussianBlur stdDeviation="4"/>
<feComposite in2="hardAlpha" operator="arithmetic" k2="-1" k3="1"/>
<feColorMatrix type="matrix" values="0 0 0 0 0.827451 0 0 0 0 0.662745 0 0 0 0 0.00784314 0 0 0 1 0"/>
<feBlend mode="normal" in2="effect1_innerShadow_117_2" result="effect2_innerShadow_117_2"/>
</filter>
<clipPath id="clip0_117_2">
<rect width="600" height="624" fill="white" transform="translate(239 159)"/>
</clipPath>
</defs>
</svg>
